<?xml version="1.0" encoding="utf-8"?>
<!-- Generator: Adobe Illustrator 16.0.0, SVG Export Plug-In . SVG Version: 6.00 Build 0)  -->
<!DOCTYPE svg PUBLIC "-//W3C//DTD SVG 1.1//EN" "http://www.w3.org/Graphics/SVG/1.1/DTD/svg11.dtd">
<svg version="1.1" id="Capa_1" xmlns="http://www.w3.org/2000/svg" xmlns:xlink="http://www.w3.org/1999/xlink" x="0px" y="0px"
	 width="1523.441px" height="419.787px" viewBox="0 188.713 1523.441 419.787" enable-background="new 0 188.713 1523.441 419.787"
	 xml:space="preserve">
<path fill="#21CDEC" d="M609.511,351.704L467.77,192.031c-1.925-2.167-4.692-3.386-7.601-3.314
	c-2.898,0.063-5.621,1.398-7.447,3.648L306,373.202L159.278,192.365c-1.826-2.25-4.548-3.585-7.447-3.648
	c-2.938-0.075-5.675,1.147-7.6,3.314L2.489,351.704c-2.985,3.362-3.32,8.315-0.817,12.05l157.647,235.161
	c1.834,2.734,4.908,4.375,8.199,4.375H444.48c3.289,0,6.365-1.641,8.197-4.375l157.649-235.161
	C612.831,360.017,612.495,355.065,609.511,351.704z"/>
<text transform="matrix(1 0 0 1 650 452.3252)" fill="#21CDEC" font-family="'HelveticaNeue-Medium'" font-size="212">Nhat Lan </text>
</svg>
